<svg xmlns="http://www.w3.org/2000/svg" viewBox="0 0 813.66 593.92"><defs><style>.cls-1{fill:none;}.cls-2,.cls-3{fill:red;}.cls-3,.cls-4{font-size:100px;font-family:Voltaire, Voltaire;}</style></defs><title>logo</title><g id="Layer_2" data-name="Layer 2"><line class="cls-1" x1="361.27" y1="487" x2="356.15" y2="474.62"/><line class="cls-1" x1="330.6" y1="412.88" x2="323.86" y2="396.59"/><path class="cls-1" d="M197,517.17" transform="translate(-56.34 -41.42)"/><line class="cls-1" x1="141.14" y1="474.62" x2="136.81" y2="485.04"/><line class="cls-1" x1="171.1" y1="402.49" x2="166.78" y2="412.88"/><polygon class="cls-2" points="356.15 474.62 141.14 474.62 166.78 412.88 330.6 412.88 356.15 474.62"/></g><g id="Layer_4" data-name="Layer 4"><path d="M246.16,41.42H365.48v567.2H246.16Z" transform="translate(-56.34 -41.42)"/></g><g id="Layer_1" data-name="Layer 1"><path class="cls-2" d="M290.77,65.53l-233,521A16,16,0,0,0,72.32,609h76a16,16,0,0,0,14.75-9.87L197.38,516h.09l25.64-61.74H223l59.86-143.6q.25-.59.44-1.2L290,288.9c4.75-14.58,25.31-14.73,30.28-.23l7.18,21q.16.47.35.92l59.36,143.74h-.22L412.48,516h.26l34.85,83.17A16,16,0,0,0,462.32,609h76.05a16,16,0,0,0,14.57-22.48l-233-521A16,16,0,0,0,290.77,65.53Z" transform="translate(-56.34 -41.42)"/><path class="cls-1" d="M413.56,517.17" transform="translate(-56.34 -41.42)"/><path class="cls-1" d="M387,454.9" transform="translate(-56.34 -41.42)"/><path class="cls-1" d="M197,517.17" transform="translate(-56.34 -41.42)"/><path class="cls-1" d="M223.61,454.9" transform="translate(-56.34 -41.42)"/><text class="cls-3" transform="translate(454.09 450.58) scale(1.14 1)">lexander</text><text class="cls-4" transform="translate(498.24 568) scale(1.14 1)">ronside</text></g></svg>