<svg id="Layer_1" data-name="Layer 1" xmlns="http://www.w3.org/2000/svg" viewBox="0 0 500 500"><defs><style>.cls-1{fill:#fc6;}</style></defs><title>star</title><polygon class="cls-1" points="250 379.19 96.79 498.14 157.04 308.17 2.04 191.67 192.56 193.22 250 2.34 307.44 193.22 497.96 191.67 342.96 308.17 403.21 498.14 250 379.19"/><path d="M250,4.68l56.65,188.25.29,1h1l188-1.52-153,115-.76.57.29.91,59.45,187.45L250.83,379l-.83-.64-.83.64L98.09,496.28l59.45-187.45.29-.91-.76-.57-153-115,188,1.52h1l.29-1L250,4.68M250,0,192.06,192.54,0,191,156.25,308.42,95.49,500,250,380,404.51,500,343.75,308.42,500,191l-192.06,1.56L250,0Z"/></svg>